<?xml version="1.0" encoding="UTF-8"?>
<svg width="16px" height="16px" viewBox="0 0 16 16" version="1.1" xmlns="http://www.w3.org/2000/svg" xmlns:xlink="http://www.w3.org/1999/xlink">
    <title>chatted</title>
    <g id="图片分享-评论" stroke="none" stroke-width="1" fill="none" fill-rule="evenodd">
        <g id="1首页" transform="translate(-1448.000000, -955.000000)" fill="#A5A5A5" fill-rule="nonzero">
            <g id="编组-11" transform="translate(245.000000, 649.000000)">
                <g id="编组" transform="translate(1128.000000, 0.000000)">
                    <g id="编组-12" transform="translate(20.000000, 305.000000)">
                        <g id="chatted" transform="translate(55.000000, 1.000000)">
                            <path d="M8,1 C4.14024,1 1,4.14024 1,8 C1,9.14854 1.28428,10.283 1.82364,11.29316 L1.59318,14.29668 L4.51682,14.07236 C5.57392,14.67988 6.77382,15 8,15 C11.85976,15 15,11.85976 15,8 C15,4.14024 11.85976,1 8,1 Z M8,13.8 C6.9289,13.8 5.88242,13.50546 4.97344,12.94814 L4.80782,12.84658 L2.89668,12.99316 L3.04786,11.02324 L2.95704,10.86366 C2.46172,9.99366 2.2,9.00342 2.2,8 C2.2,4.80186 4.80186,2.2 8,2.2 C11.19814,2.2 13.8,4.80186 13.8,8 C13.8,11.19814 11.19814,13.8 8,13.8 Z" id="形状"></path>
                            <path d="M7.98562956,10.580292 C6.73234774,10.580292 5.70262603,9.61218351 5.60069571,8.38480839 L4.40315922,8.38480839 C4.50762432,10.2727646 6.0719862,11.7778285 7.98562956,11.7778285 C9.89927292,11.7778285 11.4636348,10.2727646 11.5680999,8.38480839 L10.3705634,8.38480839 C10.2686331,9.61218351 9.23891138,10.580292 7.98562956,10.580292 Z" id="路径"></path>
                        </g>
                    </g>
                </g>
            </g>
        </g>
    </g>
</svg>