<?xml version="1.0" encoding="UTF-8"?>
<svg width="16px" height="16px" viewBox="0 0 16 16" version="1.1" xmlns="http://www.w3.org/2000/svg" xmlns:xlink="http://www.w3.org/1999/xlink">
    <title>collect</title>
    <g id="图片分享-评论" stroke="none" stroke-width="1" fill="none" fill-rule="evenodd">
        <g id="1首页" transform="translate(-913.000000, -677.000000)" fill="#555555" fill-rule="nonzero">
            <g id="收藏" transform="translate(901.000000, 669.000000)">
                <g id="collect" transform="translate(12.000000, 8.000000)">
                    <path d="M12.0277933,15.3538462 C11.8047164,15.3538462 11.5508702,15.2923077 11.320101,15.1692308 L7.98163946,13.5 L4.620101,15.1692308 C4.40471638,15.2846154 4.16625484,15.3461538 3.91240869,15.3461538 C3.58933176,15.3461538 3.27394715,15.2461538 3.020101,15.0538462 C2.55087023,14.7 2.31240869,14.0923077 2.420101,13.5307692 L3.10471638,9.96923077 L0.466254841,7.51538462 C0.0585625336,7.1 -0.0952836202,6.50769231 0.0585625336,5.94615385 L0.0662548413,5.93076923 C0.258562534,5.35384615 0.735485611,4.95384615 1.31240869,4.87692308 L4.97394715,4.20769231 L6.61240869,0.869230769 C6.87394715,0.338461538 7.41240869,0 7.98163946,0 C8.57394715,0 9.1277933,0.353846154 9.35856253,0.876923077 L10.9970241,4.20769231 L14.6585625,4.84615385 C15.2354856,4.93076923 15.720101,5.34615385 15.8816395,5.91538462 C16.0662548,6.46923077 15.9124087,7.07692308 15.4970241,7.49230769 L15.4893318,7.5 L12.8662548,9.97692308 L13.5277933,13.5461538 C13.6354856,14.1153846 13.4047164,14.6923077 12.9354856,15.0538462 C12.6662548,15.2461538 12.3508702,15.3538462 12.0277933,15.3538462 Z" id="路径"></path>
                </g>
            </g>
        </g>
    </g>
</svg>