<?xml version="1.0" encoding="UTF-8"?>
<svg width="38px" height="38px" viewBox="0 0 38 38" version="1.1" xmlns="http://www.w3.org/2000/svg" xmlns:xlink="http://www.w3.org/1999/xlink">
    <title>email</title>
    <g id="图片分享-评论" stroke="none" stroke-width="1" fill="none" fill-rule="evenodd">
        <g id="2详情页" transform="translate(-1576.000000, -2781.000000)">
            <g id="footer" transform="translate(0.000000, 2637.000000)">
                <g id="编组-10" transform="translate(1402.000000, 63.000000)">
                    <g id="编组-5" transform="translate(3.000000, 81.000000)">
                        <g id="email" transform="translate(171.000000, 0.000000)">
                            <rect id="矩形" stroke="#666666" transform="translate(19.000000, 19.000000) rotate(45.000000) translate(-19.000000, -19.000000) " x="6.5" y="6.5" width="25" height="25" rx="3"></rect>
                            <path d="M24.965358,13.0022357 L12.9969674,13.0022357 C11.8944248,13.0022357 11.0022357,13.9132841 11.0022357,15.0404889 L11.0022357,22.9323731 C11.0022357,24.0566764 11.8929741,24.9706263 12.9969674,24.9706263 L24.965358,24.9706263 C26.0649992,24.9706263 26.9600898,24.0566764 26.9600898,22.9309224 L26.9600898,15.0390381 C26.9600898,13.9147348 26.0649992,13.0022357 24.965358,13.0022357 Z M24.8870195,17.5908441 L19.2684041,21.294517 C19.0944588,21.4104569 18.8678667,21.4104569 18.6939214,21.294517 L13.0724046,17.5908441 C12.8245101,17.4242158 12.7538415,17.0907881 12.912826,16.8379235 C12.9876692,16.7174709 13.1080449,16.6324065 13.2465746,16.6020775 C13.3851043,16.5717485 13.5300114,16.5987333 13.648338,16.6768943 L18.9811627,20.1905236 L24.3125367,16.6768943 C24.430752,16.5992046 24.5753101,16.5724911 24.7134831,16.6028018 C24.8516562,16.6331125 24.9717582,16.7178838 25.046598,16.8379235 C25.206394,17.0906431 25.1355967,17.4246776 24.8870195,17.5908441 L24.8870195,17.5908441 Z" id="形状" fill="#000000" fill-rule="nonzero"></path>
                        </g>
                    </g>
                </g>
            </g>
        </g>
    </g>
</svg>