<?xml version="1.0" encoding="UTF-8"?>
<svg width="16px" height="16px" viewBox="0 0 16 16" version="1.1" xmlns="http://www.w3.org/2000/svg" xmlns:xlink="http://www.w3.org/1999/xlink">
    <title>praised</title>
    <g id="图片分享-评论" stroke="none" stroke-width="1" fill="none" fill-rule="evenodd">
        <g id="1首页" transform="translate(-1498.000000, -955.000000)" fill="#A5A5A5" fill-rule="nonzero">
            <g id="编组-11" transform="translate(245.000000, 649.000000)">
                <g id="编组" transform="translate(1128.000000, 0.000000)">
                    <g id="编组-12" transform="translate(20.000000, 305.000000)">
                        <g id="praised" transform="translate(105.000000, 1.000000)">
                            <path d="M13.0989901,5.73911462 L9.80981198,5.73911462 C9.99094012,5.25363741 10.1055017,4.74587098 10.1503748,4.22965212 C10.234155,3.53461988 10.1074027,2.83043999 9.78652188,2.20824674 C9.39808974,1.54081709 8.71357267,1.09972017 7.94528524,1.02176966 C7.6097825,0.958953972 7.26310382,1.03335533 6.98292049,1.22830456 C6.45340017,1.61368989 6.35584539,2.34710849 6.24334979,3.19609875 C6.20068933,3.8916504 6.01883207,4.57156044 5.70855624,5.19553234 C5.47961011,5.56377967 5.03446148,6.05287188 3.81326897,6.05287188 L2.53890471,6.05287188 C1.70699185,6.03766127 1.01937508,6.69796983 1.00087888,7.52981612 L1.00087888,13.1137288 C1.01866131,13.9457448 1.70594992,14.606705 2.53802583,14.5919913 L11.8211103,14.5919913 C12.242837,14.5922323 12.6531633,14.4550802 12.99001,14.2013328 C13.318973,13.9522092 13.5528098,13.5980425 13.6526794,13.197661 L14.9301197,7.95650842 C15.061856,7.41798877 14.9291776,6.84892393 14.5728583,6.42419526 C14.2089241,5.98584433 13.6679791,5.73496194 13.0989901,5.73911462 Z M2.02608295,7.530695 C2.03232756,7.25341234 2.26159962,7.03337404 2.53890471,7.03852673 L3.62035659,7.03852673 L3.62035659,13.6067759 L2.53802583,13.6067759 C2.26072074,13.6119286 2.03144868,13.3918903 2.02520408,13.1146076 L2.02608295,7.530695 Z M12.6547204,12.9731093 C12.5570381,13.3514597 12.2126883,13.6134926 11.8219892,13.6067759 L4.64731841,13.6067759 L4.64731841,6.9673381 C5.44947993,6.85102586 6.16001149,6.38810378 6.59050419,5.70132313 C6.98001481,4.96433957 7.20900596,4.15321068 7.26240176,3.32133799 C7.29612274,3.00691422 7.34939766,2.69489638 7.42191702,2.38709716 C7.44274233,2.24698486 7.50627145,2.11670413 7.6038435,2.01401604 C7.66367856,1.98585014 7.73155356,1.97977875 7.79543757,1.99687804 C8.24976571,2.03196516 8.6579181,2.28786111 8.88743592,2.68151925 C9.33873665,3.47645889 9.13923273,4.81761742 8.70902492,5.7316442 C8.60584728,5.94858807 8.62541487,6.20397025 8.76043893,6.4026629 C8.89909725,6.60564574 9.12983802,6.72612538 9.37564926,6.72389059 L13.1007478,6.72389059 C13.3594565,6.72210155 13.6054197,6.83605696 13.7713271,7.0345718 C13.9332358,7.22765811 13.9934576,7.48633443 13.933479,7.73107779 L12.6547204,12.9731093 Z" id="形状"></path>
                        </g>
                    </g>
                </g>
            </g>
        </g>
    </g>
</svg>