<?xml version="1.0" encoding="UTF-8"?>
<svg width="38px" height="38px" viewBox="0 0 38 38" version="1.1" xmlns="http://www.w3.org/2000/svg" xmlns:xlink="http://www.w3.org/1999/xlink">
    <title>qq</title>
    <g id="图片分享-评论" stroke="none" stroke-width="1" fill="none" fill-rule="evenodd">
        <g id="2详情页" transform="translate(-1519.000000, -2781.000000)">
            <g id="footer" transform="translate(0.000000, 2637.000000)">
                <g id="编组-10" transform="translate(1402.000000, 63.000000)">
                    <g id="编组-5" transform="translate(3.000000, 81.000000)">
                        <g id="qq" transform="translate(114.000000, 0.000000)">
                            <rect id="矩形" stroke="#666666" transform="translate(19.000000, 19.000000) rotate(45.000000) translate(-19.000000, -19.000000) " x="6.5" y="6.5" width="25" height="25" rx="3"></rect>
                            <path d="M24.9798484,21.0149641 C24.6606145,19.9894254 24.2934956,19.127494 23.7288508,17.7168795 C23.8166401,14.0117718 22.2763368,11.0149641 18.7288508,11.0149641 C15.1414605,11.0149641 13.6350758,14.0716281 13.730846,17.7168795 C13.1642059,19.1294892 12.7990822,19.985435 12.4798484,21.0149641 C11.8014764,23.1997207 12.0209497,24.1035515 12.1885475,24.1235036 C12.5476856,24.1673983 13.5871907,22.4794493 13.5871907,22.4794493 C13.5871907,23.457103 14.089984,24.7320431 15.1793695,25.6518356 C14.6526337,25.8134477 13.4694733,26.2484038 13.7507981,26.7252594 C13.9782522,27.1103352 17.665403,26.9706704 18.7288508,26.8509577 C19.7922985,26.9706704 23.4794493,27.1103352 23.7069034,26.7252594 C23.9882283,26.250399 22.8030726,25.8134477 22.278332,25.6518356 C23.3677175,24.7300479 23.8705108,23.4551078 23.8705108,22.4794493 C23.8705108,22.4794493 24.910016,24.1673982 25.269154,24.1235036 C25.438747,24.1015563 25.6582203,23.1977255 24.9798484,21.0149641 Z" id="路径" fill="#000000" fill-rule="nonzero"></path>
                        </g>
                    </g>
                </g>
            </g>
        </g>
    </g>
</svg>