<?xml version="1.0" encoding="UTF-8"?>
<svg width="24px" height="24px" viewBox="0 0 24 24" version="1.1" xmlns="http://www.w3.org/2000/svg" xmlns:xlink="http://www.w3.org/1999/xlink">
    <title>searchIcon</title>
    <g id="图片分享-评论" stroke="none" stroke-width="1" fill="none" fill-rule="evenodd">
        <g id="3导航展开" transform="translate(-1629.000000, -559.000000)" fill="#333333" fill-rule="nonzero" stroke="#333333">
            <g id="header" transform="translate(0.000000, 540.000000)">
                <g id="searchIcon" transform="translate(1629.000000, 19.000000)">
                    <path d="M16.9432199,5.40025112 C13.7561384,2.21316964 8.58942522,2.21316964 5.40025112,5.40025112 C2.21107701,8.58733259 2.21316964,13.7540458 5.40025112,16.9411272 C8.46386719,20.0047433 13.3543527,20.1240234 16.5602679,17.2989676 L20.1616908,20.9003906 L20.9024833,20.1595982 L17.3010603,16.5623605 C20.1261161,13.3564453 20.0068359,8.46386719 16.9432199,5.40025112 Z M17.765625,13.8503069 C17.4077846,14.7313058 16.8825335,15.5244141 16.2024275,16.2024275 C15.5223214,16.8825335 14.7313058,17.4077846 13.8503069,17.765625 C12.9986049,18.1109096 12.0966797,18.2866908 11.1717355,18.2866908 C10.2467913,18.2866908 9.34695871,18.1109096 8.49316406,17.765625 C7.61216518,17.4077846 6.81905692,16.8825335 6.14104353,16.2024275 C5.46303013,15.5223214 4.93568638,14.7313058 4.57784598,13.8503069 C4.23256138,12.9986049 4.05678013,12.0966797 4.05678013,11.1717355 C4.05678013,10.2467913 4.23256138,9.34695871 4.57784598,8.49316406 C4.93568638,7.61216518 5.4609375,6.81905692 6.14104353,6.14104353 C6.82114955,5.46303013 7.61216518,4.93568638 8.49316406,4.57784598 C9.34486607,4.23256138 10.2467913,4.05678013 11.1717355,4.05678013 C12.0966797,4.05678013 12.9965123,4.23256138 13.8503069,4.57784598 C14.7313058,4.93568638 15.5244141,5.4609375 16.2024275,6.14104353 C16.8825335,6.82114955 17.4077846,7.61216518 17.765625,8.49316406 C18.1109096,9.34486607 18.2866908,10.2467913 18.2866908,11.1717355 C18.2866908,12.0966797 18.1109096,12.9986049 17.765625,13.8503069 Z" id="形状"></path>
                </g>
            </g>
        </g>
    </g>
</svg>