<?xml version="1.0" encoding="UTF-8"?>
<svg width="16px" height="16px" viewBox="0 0 16 16" version="1.1" xmlns="http://www.w3.org/2000/svg" xmlns:xlink="http://www.w3.org/1999/xlink">
    <title>seen</title>
    <g id="图片分享-评论" stroke="none" stroke-width="1" fill="none" fill-rule="evenodd">
        <g id="1首页" transform="translate(-1393.000000, -955.000000)" fill="#999999" fill-rule="nonzero">
            <g id="编组-11" transform="translate(245.000000, 649.000000)">
                <g id="编组" transform="translate(1128.000000, 0.000000)">
                    <g id="编组-12" transform="translate(20.000000, 305.000000)">
                        <g id="seen" transform="translate(0.000000, 1.000000)">
                            <path d="M15.8296784,7.48611111 C14.0972222,3.83662281 11.4784357,2 7.96783626,2 C4.45540936,2 1.83845029,3.83662281 0.105994152,7.4879386 C-0.0347222222,7.78399123 -0.0347222222,8.13121345 0.105994152,8.42909357 C1.83845029,12.0785819 4.45723684,13.9152047 7.96783626,13.9152047 C11.4802632,13.9152047 14.0972222,12.0785819 15.8296784,8.42726608 C15.9703947,8.13121345 15.9703947,7.7876462 15.8296784,7.48611111 Z M7.96783626,12.5994152 C5.02010234,12.5994152 2.86184211,11.1045322 1.33954678,7.95760234 C2.86184211,4.81067251 5.02010234,3.31578947 7.96783626,3.31578947 C10.9155702,3.31578947 13.0738304,4.81067251 14.5961257,7.95760234 C13.0756579,11.1045322 10.9173977,12.5994152 7.96783626,12.5994152 Z M7.89473684,4.74122807 C6.11842105,4.74122807 4.67836257,6.18128655 4.67836257,7.95760234 C4.67836257,9.73391813 6.11842105,11.1739766 7.89473684,11.1739766 C9.67105263,11.1739766 11.1111111,9.73391813 11.1111111,7.95760234 C11.1111111,6.18128655 9.67105263,4.74122807 7.89473684,4.74122807 Z M7.89473684,10.004386 C6.76352339,10.004386 5.84795322,9.08881579 5.84795322,7.95760234 C5.84795322,6.82638889 6.76352339,5.91081871 7.89473684,5.91081871 C9.02595029,5.91081871 9.94152047,6.82638889 9.94152047,7.95760234 C9.94152047,9.08881579 9.02595029,10.004386 7.89473684,10.004386 Z" id="形状"></path>
                        </g>
                    </g>
                </g>
            </g>
        </g>
    </g>
</svg>