<?xml version="1.0" encoding="UTF-8"?>
<svg width="38px" height="38px" viewBox="0 0 38 38" version="1.1" xmlns="http://www.w3.org/2000/svg" xmlns:xlink="http://www.w3.org/1999/xlink">
    <title>sina</title>
    <g id="图片分享-评论" stroke="none" stroke-width="1" fill="none" fill-rule="evenodd">
        <g id="2详情页" transform="translate(-1462.000000, -2781.000000)">
            <g id="footer" transform="translate(0.000000, 2637.000000)">
                <g id="编组-10" transform="translate(1402.000000, 63.000000)">
                    <g id="编组-5" transform="translate(3.000000, 81.000000)">
                        <g id="sina" transform="translate(57.000000, 0.000000)">
                            <rect id="矩形" stroke="#666666" transform="translate(19.000000, 19.000000) rotate(45.000000) translate(-19.000000, -19.000000) " x="6.5" y="6.5" width="25" height="25" rx="3"></rect>
                            <path d="M22.8330645,19.2581966 C22.2114688,19.1364632 22.5133991,18.7999061 22.5133991,18.7999061 C22.5133991,18.7999061 23.1215364,17.7906664 22.3929605,17.0568915 C21.4902694,16.1481187 19.2968118,17.1725432 19.2968118,17.1725432 C18.459078,17.4341572 18.6808662,17.0529874 18.7995391,16.4041218 C18.7995391,15.6396046 18.5396319,14.3457579 16.3075845,15.1098435 C14.0781268,15.8782649 12.1635672,18.5703292 12.1635672,18.5703292 C10.8320528,20.3592905 11.0087771,21.7419114 11.0087771,21.7419114 C11.3410181,24.7941144 14.5615291,25.6318483 17.0668832,25.8302316 C19.702191,26.0390323 23.2592786,24.9154162 24.3378308,22.6086612 C25.4164026,20.297747 23.4568183,19.3833633 22.8330645,19.2581966 Z M17.2618136,24.9699951 C14.6455752,25.0930234 12.5304546,23.7718872 12.5304546,22.0134721 C12.5304546,20.2535855 14.6455555,18.8419291 17.2618136,18.7206469 C19.8797981,18.5993647 21.9992544,19.6852739 21.9992544,21.4421588 C21.9992544,23.2001227 19.8797981,24.850459 17.2618136,24.9699951 Z M16.740312,19.8797531 C14.1084571,20.1899232 14.4125258,22.6719115 14.4125258,22.6719115 C14.4125258,22.6719115 14.3856679,23.4582839 15.1181284,23.858523 C16.6579924,24.6979833 18.2433322,24.1894495 19.0446932,23.1481335 C19.8460345,22.1061896 19.3756197,19.5717803 16.740312,19.8797531 Z M16.0762812,23.36384 C15.5846391,23.4218914 15.1891673,23.1360288 15.1891673,22.7225668 C15.1891673,22.3101838 15.5404384,21.8787707 16.0325121,21.8272131 C16.596488,21.7730657 16.9638071,22.1005394 16.9638071,22.5142172 C16.9638267,22.9266002 16.5657457,23.3075542 16.0762812,23.36384 Z M17.6274062,22.0329926 C17.4610601,22.1581789 17.2562027,22.140836 17.1682721,21.9905379 C17.0764178,21.8441243 17.1110839,21.6093681 17.2791368,21.4859083 C17.4744988,21.3399263 17.6772178,21.3819297 17.7651484,21.5283433 C17.853079,21.678661 17.7902799,21.9038826 17.6274062,22.0329926 Z M24.1143357,18.1835289 C24.3265697,18.1835289 24.5067862,18.0254226 24.5370969,17.8192311 C24.5405694,17.8040659 24.5427078,17.7906468 24.5427078,17.7733236 C24.8641194,14.8633947 22.1750959,15.3641202 22.1750959,15.3641202 C21.936416,15.3641202 21.7449385,15.5585994 21.7449385,15.8011834 C21.7449385,16.0402949 21.936416,16.234774 22.1750959,16.234774 C24.1065275,15.8050875 23.6803134,17.7499578 23.6803134,17.7499578 C23.6803134,17.9907762 23.8752438,18.1835289 24.1143357,18.1835289 Z M23.8007324,13.1047833 C22.8711835,12.8856043 21.9147767,13.074453 21.6470809,13.1260106 C21.6262852,13.1281687 21.6072551,13.1476696 21.5881662,13.1515737 C21.5786512,13.1533001 21.5725695,13.1632664 21.5725695,13.1632664 C21.3087974,13.2382094 21.1155934,13.4846583 21.1155934,13.7753078 C21.1155934,14.1222628 21.3949819,14.4072818 21.7428197,14.4072818 C21.7428197,14.4072818 22.0811228,14.3613547 22.3106801,14.271266 C22.5385305,14.1789998 24.4643119,14.2024048 25.4207383,15.8198014 C25.9422399,17.0001545 25.6502956,17.7902152 25.6134714,17.9171475 C25.6134714,17.9171475 25.489168,18.2238058 25.489168,18.5261481 C25.489168,18.8743979 25.7690077,19.0935769 26.1146286,19.0935769 C26.4035713,19.0935769 26.6465477,19.0537315 26.7176063,18.5616774 L26.7210591,18.5616774 C27.7480929,15.1150621 25.4644878,13.4954681 23.8007324,13.1047833 Z" id="形状" fill="#333333" fill-rule="nonzero"></path>
                        </g>
                    </g>
                </g>
            </g>
        </g>
    </g>
</svg>