<?xml version="1.0" encoding="UTF-8"?>
<svg width="38px" height="38px" viewBox="0 0 38 38" version="1.1" xmlns="http://www.w3.org/2000/svg" xmlns:xlink="http://www.w3.org/1999/xlink">
    <title>wechat</title>
    <g id="图片分享-评论" stroke="none" stroke-width="1" fill="none" fill-rule="evenodd">
        <g id="2详情页" transform="translate(-1405.000000, -2781.000000)">
            <g id="footer" transform="translate(0.000000, 2637.000000)">
                <g id="编组-10" transform="translate(1402.000000, 63.000000)">
                    <g id="wechat" transform="translate(3.000000, 81.000000)">
                        <rect id="矩形" stroke="#666666" transform="translate(19.000000, 19.000000) rotate(45.000000) translate(-19.000000, -19.000000) " x="6.5" y="6.5" width="25" height="25" rx="3"></rect>
                        <rect id="矩形" x="11" y="11" width="16" height="16"></rect>
                        <path d="M21.8313333,15.9475 C22.0146667,15.9475 22.1966667,15.9608333 22.3766667,15.9808333 C21.8866667,13.6988333 19.4473333,12.0035 16.6626667,12.0035 C13.55,12.0041667 11,14.1261667 11,16.8208333 C11,18.3761667 11.8486667,19.6528333 13.266,20.6435 L12.6993333,22.3475 L14.6793333,21.3548333 C15.3873333,21.4948333 15.956,21.6388333 16.6626667,21.6388333 C16.8406667,21.6388333 17.0166667,21.6301667 17.1913333,21.6161667 C17.076889,21.2309492 17.0180725,20.8313557 17.0166667,20.4295 C17.0166667,17.9555 19.1413333,15.9475 21.8313333,15.9475 L21.8313333,15.9475 Z M18.7866667,14.4121667 C19.2133333,14.4121667 19.4953333,14.6928333 19.4953333,15.1188333 C19.4953333,15.5428333 19.2133333,15.8275 18.7866667,15.8275 C18.362,15.8275 17.936,15.5428333 17.936,15.1188333 C17.936,14.6928333 18.362,14.4121667 18.7866667,14.4121667 Z M14.8233333,15.8275 C14.3986667,15.8275 13.9706667,15.5428333 13.9706667,15.1188333 C13.9706667,14.6928333 14.3986667,14.4121667 14.8233333,14.4121667 C15.2473333,14.4121667 15.53,14.6928333 15.53,15.1188333 C15.53,15.5435 15.2473333,15.8275 14.8233333,15.8275 Z" id="形状" fill="#333333" fill-rule="nonzero"></path>
                        <path d="M27,20.3615 C27,18.0975 24.7346667,16.2515 22.19,16.2515 C19.4953333,16.2515 17.3733333,18.0968333 17.3733333,20.3615 C17.3733333,22.6295 19.4953333,24.4708333 22.19,24.4708333 C22.754,24.4708333 23.3226667,24.3288333 23.8893333,24.1868333 L25.4426667,25.0368333 L25.0166667,23.6221667 C26.1526667,22.7695 27,21.6388333 27,20.3615 Z M20.628,19.6528333 C20.346,19.6528333 20.0613333,19.3728333 20.0613333,19.0861667 C20.0613333,18.8035 20.346,18.5195 20.628,18.5195 C21.0566667,18.5195 21.3366667,18.8035 21.3366667,19.0861667 C21.3366667,19.3728333 21.0566667,19.6528333 20.628,19.6528333 Z M23.7433333,19.6528333 C23.4633333,19.6528333 23.1806667,19.3728333 23.1806667,19.0861667 C23.1806667,18.8035 23.4633333,18.5195 23.7433333,18.5195 C24.1673333,18.5195 24.452,18.8035 24.452,19.0861667 C24.452,19.3728333 24.1673333,19.6528333 23.7433333,19.6528333 Z" id="形状" fill="#333333" fill-rule="nonzero"></path>
                    </g>
                </g>
            </g>
        </g>
    </g>
</svg>